<svg width="36" height="34" viewBox="0 0 36 34" fill="none" xmlns="http://www.w3.org/2000/svg">
<path d="M7.42772 3.71568C7.42722 4.70066 7.03547 5.6451 6.33864 6.34123C5.64181 7.03737 4.69698 7.42818 3.712 7.42768C2.72702 7.42719 1.78259 7.03544 1.08645 6.33861C0.390316 5.64178 -0.000492023 4.69695 4.64903e-07 3.71197C0.000492953 2.72699 0.392245 1.78256 1.08908 1.08642C1.78591 0.390285 2.73074 -0.000522541 3.71571 -3.00527e-05C4.70069 0.000462435 5.64513 0.392215 6.34126 1.08905C7.0374 1.78588 7.42821 2.73071 7.42772 3.71568ZM7.53913 10.1778H0.111416V33.4265H7.53913V10.1778ZM19.2749 10.1778H11.8843V33.4265H19.2006V21.2265C19.2006 14.4302 28.0582 13.7988 28.0582 21.2265V33.4265H35.3931V18.7011C35.3931 7.24385 22.2831 7.67094 19.2006 13.2974L19.2749 10.1778Z" fill="white"/>
</svg>
